<?xml version="1.0" encoding="iso-8859-1"?>
<!-- Generator: Adobe Illustrator 18.1.1, SVG Export Plug-In . SVG Version: 6.00 Build 0)  -->
<svg version="1.1" id="Capa_1" xmlns="http://www.w3.org/2000/svg" xmlns:xlink="http://www.w3.org/1999/xlink" x="0px" y="0px"
	 viewBox="0 0 51.927 51.927" style="enable-background:new 0 0 51.927 51.927;" xml:space="preserve">
<g>
	<path style="fill:#010002;" d="M35.838,27.688c-5.244-5.194-10.679-12.299-11.869-15.513c-1.436-3.886-5.726-7.932-9.765-9.209
		c-0.88-0.277-1.609-0.413-2.231-0.413c-1.633,0-2.208,0.969-2.378,1.386C9.03,5.312,9.88,7.053,12.271,9.418
		c1.408,1.393,2.434,3.081,2.815,4.633c0.318,1.294,0.159,2.38-0.436,2.981c-0.405,0.409-1.003,0.616-1.779,0.616
		c-1.797,0-4.042-1.116-5.859-2.914c-1.893-1.872-3.42-2.782-4.666-2.782c-0.747,0-1.395,0.316-1.823,0.888
		c-0.64,0.856-0.691,2.091-0.162,3.886c1.2,4.071,5.314,8.332,9.364,9.701c3.336,1.128,10.582,6.465,15.823,11.654l5.077,5.027
		c4.332,4.29,9.199,6.956,12.699,6.956l0,0c1.41,0,2.592-0.442,3.422-1.28c3.341-3.375-0.512-10.798-5.834-16.068L35.838,27.688z
		 M44.616,46.673c-0.258,0.261-0.691,0.393-1.289,0.393l0,0c-2.211,0-6.344-1.883-10.59-6.087l-5.076-5.028
		c-5.699-5.643-13.153-11.074-16.974-12.365c-3.116-1.053-6.526-4.583-7.447-7.707c-0.061-0.204-0.106-0.382-0.14-0.536
		c0.415,0.274,1.007,0.739,1.802,1.525c2.393,2.368,5.372,3.781,7.969,3.781c1.584,0,2.938-0.52,3.912-1.507
		c1.365-1.379,1.797-3.441,1.216-5.807c-0.517-2.104-1.802-4.253-3.619-6.05c-0.658-0.65-1.095-1.162-1.386-1.55
		c0.095,0.026,0.197,0.057,0.306,0.092c3.145,0.994,6.743,4.378,7.855,7.389c1.36,3.675,6.882,10.968,12.571,16.603l5.076,5.028
		C44.202,40.197,45.852,45.425,44.616,46.673z M36.936,41.849c-1.002-0.99-1.246-2.365-0.547-3.072
		c0.7-0.707,2.078-0.479,3.08,0.512c1,0.99,1.244,2.365,0.545,3.072C39.315,43.069,37.936,42.839,36.936,41.849z M47.819,1.259
		c-2.809,0-6.611,2.058-9.923,5.371c-0.333,0.332-8.126,8.179-7.147,11.669c0.572,2.05,2.531,3.867,4.557,4.229
		c0.136,0.024,0.284,0.037,0.441,0.037c2.77,0,8.16-4.647,10.908-7.394c2.123-2.122,3.762-4.505,4.619-6.71
		c1.012-2.604,0.842-4.764-0.476-6.081C50.065,1.647,49.034,1.259,47.819,1.259z M48.477,7.375
		c-0.697,1.799-2.136,3.867-3.943,5.674c-4.209,4.208-7.846,6.42-8.761,6.515c-0.874-0.188-1.88-1.157-2.118-1.976
		c-0.012-0.876,2.104-4.577,6.362-8.836c3.103-3.104,6.154-4.492,7.802-4.492c0.28,0,0.658,0.042,0.857,0.241
		C49.005,4.83,49.071,5.845,48.477,7.375z M17.177,35.307l-13,12.792C3.587,48.68,3.579,49.63,4.16,50.22
		c0.294,0.299,0.682,0.447,1.069,0.447c0.38,0,0.76-0.144,1.052-0.431l13-12.792c0.59-0.581,0.598-1.531,0.017-2.121
		S17.768,34.728,17.177,35.307z"/>
</g>
<g>
</g>
<g>
</g>
<g>
</g>
<g>
</g>
<g>
</g>
<g>
</g>
<g>
</g>
<g>
</g>
<g>
</g>
<g>
</g>
<g>
</g>
<g>
</g>
<g>
</g>
<g>
</g>
<g>
</g>
</svg>
