<?xml version="1.0" encoding="iso-8859-1"?>
<!-- Generator: Adobe Illustrator 16.0.0, SVG Export Plug-In . SVG Version: 6.00 Build 0)  -->
<!DOCTYPE svg PUBLIC "-//W3C//DTD SVG 1.1//EN" "http://www.w3.org/Graphics/SVG/1.1/DTD/svg11.dtd">
<svg version="1.1" id="Capa_1" xmlns="http://www.w3.org/2000/svg" xmlns:xlink="http://www.w3.org/1999/xlink" x="0px" y="0px"
	 width="400.376px" height="400.376px" viewBox="0 0 400.376 400.376" style="enable-background:new 0 0 400.376 400.376;"
	 xml:space="preserve">
<g>
	<g>
		<path d="M369.327,34.534C349.294,14.5,322.664,3.477,294.349,3.477c-28.33,0-54.956,11.034-74.979,31.058
			c-20.022,20.024-31.057,46.655-31.057,74.977c0,28.323,11.029,54.951,31.057,74.976c20.022,20.031,46.658,31.054,74.979,31.054
			c28.321,0,54.95-11.034,74.978-31.054c20.021-20.024,31.05-46.652,31.05-74.976C400.376,81.189,389.352,54.558,369.327,34.534z
			 M315.63,130.793c-5.685,5.685-13.244,8.814-21.286,8.814c-8.038,0-15.596-3.129-21.282-8.814
			c-5.689-5.688-8.819-13.244-8.819-21.282c0-8.042,3.13-15.596,8.819-21.281c5.69-5.688,13.25-8.821,21.287-8.821
			s15.597,3.133,21.281,8.821c5.685,5.68,8.814,13.239,8.814,21.281C324.439,117.549,321.31,125.111,315.63,130.793z"/>
		<path d="M294.349,90.165c-5.171,0-10.026,2.016-13.686,5.672c-3.654,3.654-5.669,8.514-5.669,13.68
			c0,5.166,2.015,10.024,5.669,13.68c7.308,7.31,20.059,7.3,27.366,0c3.653-3.656,5.663-8.514,5.663-13.68
			c0-5.17-2.01-10.026-5.663-13.68C304.371,92.181,299.514,90.165,294.349,90.165z"/>
		<path d="M339,219.501c-27.039,10.959-56.353,11.369-82.798,2.382c0.208-1.601-0.21-3.265-1.438-4.493
			c-2.101-2.101-5.503-2.101-7.602,0l-0.734,0.735c-13.172-5.817-25.408-14.091-36.007-24.694
			c-46.271-46.271-46.271-121.563,0-167.847c2.106-2.1,2.106-5.499,0-7.601c-2.105-2.1-5.495-2.1-7.601,0
			c-34.167,34.168-45.122,82.835-33.021,126.376l-4.224,4.227L84.095,67.104c-0.522-0.522-1.124-0.908-1.758-1.172l6.682-6.681
			c2.102-2.102,2.102-5.498,0-7.601c-2.103-2.102-5.499-2.102-7.602,0l-48.539,48.539c-2.103,2.103-2.103,5.501,0,7.601
			c1.047,1.05,2.423,1.575,3.8,1.575c1.376,0,2.751-0.525,3.801-1.575l6.273-6.268c0.263,0.646,0.654,1.244,1.166,1.753
			l81.481,81.487L54.244,259.92c-16.436,16.441-20.969,40.273-13.738,60.861l-25.108,25.114c-2.102,2.099-2.102,5.501,0,7.602
			L25.6,363.7L1.576,387.722c-2.102,2.101-2.102,5.498,0,7.602c1.05,1.046,2.425,1.576,3.801,1.576c1.375,0,2.753-0.53,3.8-1.576
			l24.024-24.026l10.202,10.2c1.048,1.049,2.423,1.574,3.801,1.574c1.376,0,2.751-0.525,3.801-1.574l25.052-25.05
			c6.21,2.194,12.801,3.412,19.583,3.412c15.638,0,30.345-6.09,41.397-17.145L249,230.754c14.467,5.43,29.807,8.242,45.292,8.242
			c16.389,0,32.935-3.118,48.747-9.533c2.75-1.117,4.072-4.251,2.96-7.002C344.885,219.699,341.735,218.397,339,219.501z
			 M129.442,335.113c-9.032,9.029-21.03,13.995-33.796,13.995c-6.535,0-12.869-1.324-18.706-3.807
			c-0.103-0.047-0.189-0.1-0.294-0.131c-5.451-2.362-10.472-5.733-14.8-10.058c-18.635-18.636-18.635-48.957,0-67.592
			l104.267-104.261l3.264-3.266l4.197-4.196c6.295,16.49,15.978,31.971,29.242,45.244c10.547,10.546,22.583,18.962,35.519,25.187
			L129.442,335.113z"/>
		<path d="M131.447,232.099c-0.979-2.799-4.032-4.284-6.843-3.303c-2.801,0.981-4.284,4.038-3.307,6.84l20.282,58.301
			c0.774,2.215,2.85,3.607,5.076,3.607c0.585,0,1.182-0.102,1.766-0.301c2.801-0.98,4.286-4.041,3.307-6.846L131.447,232.099z"/>
		<path d="M107.386,256.167c-0.974-2.808-4.053-4.298-6.837-3.312c-2.806,0.977-4.289,4.041-3.312,6.839l20.275,58.3
			c0.775,2.221,2.851,3.618,5.077,3.618c0.586,0,1.182-0.102,1.764-0.307c2.806-0.976,4.289-4.035,3.31-6.833L107.386,256.167z"/>
		<path d="M86.331,277.218c-0.979-2.799-4.032-4.285-6.843-3.303c-2.8,0.977-4.284,4.032-3.307,6.84l20.282,58.295
			c0.774,2.216,2.85,3.612,5.076,3.612c0.585,0,1.182-0.101,1.77-0.306c2.8-0.977,4.284-4.036,3.305-6.846L86.331,277.218z"/>
	</g>
</g>
<g>
</g>
<g>
</g>
<g>
</g>
<g>
</g>
<g>
</g>
<g>
</g>
<g>
</g>
<g>
</g>
<g>
</g>
<g>
</g>
<g>
</g>
<g>
</g>
<g>
</g>
<g>
</g>
<g>
</g>
</svg>
